<mxfile host="app.diagrams.net" modified="2024-04-02T10:16:32.073Z" agent="Mozilla/5.0 (Windows NT 10.0; Win64; x64) AppleWebKit/537.36 (KHTML, like Gecko) Chrome/123.0.0.0 Safari/537.36 Edg/123.0.0.0" version="24.1.0" etag="xMDsDdfYh9J_gWzl96yi" type="github">
  <diagram name="Page-1" id="7wl4oH6tZm_5rAgTkbIH">
    <mxGraphModel>
      <root>
        <mxCell id="0" />
        <mxCell id="1" parent="0" />
      </root>
    </mxGraphModel>
  </diagram>
</mxfile>
